<svg width="186" height="75" viewBox="0 0 186 75" fill="none" xmlns="http://www.w3.org/2000/svg">
<path d="M69 30C69 27.7909 70.7909 26 73 26H175C181.075 26 186 30.9249 186 37C186 43.0751 181.075 48 175 48H73C70.7909 48 69 46.2091 69 44V30Z" fill="#502818"/>
<path d="M153 26H159V48H153V26Z" fill="#334C1E"/>
<path d="M59 29H69V44H59V29Z" fill="#462213"/>
<path d="M5 7H53V21H5V7Z" fill="#462213"/>
<path d="M5 59H53V68H5V59Z" fill="#462213"/>
<path d="M0 3.5C0 1.567 1.567 0 3.5 0H55.5C57.433 0 59 1.567 59 3.5C59 5.433 57.433 7 55.5 7H3.5C1.567 7 0 5.433 0 3.5Z" fill="#573021"/>
<path d="M0 71.5C0 69.567 1.567 68 3.5 68H55.5C57.433 68 59 69.567 59 71.5C59 73.433 57.433 75 55.5 75H3.5C1.567 75 0 73.433 0 71.5Z" fill="#573021"/>
<path d="M0 23C0 16.3726 5.37258 11 12 11H47C53.6274 11 59 16.3726 59 23V51C59 57.6274 53.6274 63 47 63H12C5.37258 63 0 57.6274 0 51V23Z" fill="#502818"/>
</svg>
