<svg width="209" height="141" viewBox="0 0 209 141" fill="none" xmlns="http://www.w3.org/2000/svg">
<path d="M92.0002 57H198C204.075 57 209 61.9249 209 68C209 74.0751 204.075 79 198 79H92.0002V57Z" fill="#542918"/>
<path d="M171 57H177V79H171V57Z" fill="#653928"/>
<path d="M97.0002 57H103V79H97.0002V57Z" fill="#462213"/>
<path d="M95.1813 114.919C95.0164 119.017 93.1283 122.854 89.9824 125.485L87.6255 127.457C67.5937 144.212 38.7049 145.105 17.6761 129.62C14.7287 127.45 12.7808 124.183 12.2726 120.558L0.80884 38.7869C-0.241916 31.2918 2.30426 23.7403 7.67878 18.4117L10.9636 15.1549C31.1835 -1.18627 59.2949 -3.62834 82.0298 8.98131L82.7473 9.37926L88.3894 13.4005C94.9864 18.1023 98.7663 25.8149 98.4406 33.9095L95.1813 114.919Z" fill="#502818"/>
<path d="M96.0115 22.0752C97.6544 24.9501 96.3942 28.6142 93.3304 29.8702L79.1116 35.6991L78.0034 36.1363C61.6466 42.589 43.8362 44.4439 26.5007 41.5001L8.0116 37.8748C3.99868 37.088 1.18891 33.4509 1.4408 29.3693C1.51672 28.1392 1.87045 26.9422 2.47543 25.8685L4.18437 22.8352C5.05859 21.2835 6.10772 19.8371 7.31122 18.5243L8.16551 17.5924C10.0483 15.5385 12.1743 13.7216 14.4964 12.1818L15.5234 11.5008C17.3507 10.2891 19.2653 9.21441 21.2514 8.2856L24.0002 7.00009L30.0002 4.50008L35.5862 2.82021C42.9888 0.593987 50.7685 -0.0951239 58.4472 0.795213L59.8347 0.956098C68.6691 1.98043 77.0867 5.27903 84.2649 10.5296L88.3931 13.5491C91.5035 15.8242 94.0994 18.7294 96.0115 22.0752Z" fill="#462213"/>
</svg>
